HIERARCHY
ROOT SpineBase
{
  OFFSET 0.000000 0.000000 0.000000
  CHANNELS 6 Xposition Yposition Zposition Zrotation Xrotation Yrotation
  JOINT SpineMid
  {
    OFFSET -0.000000 29.123706 0.000000
    CHANNELS 3 Zrotation Xrotation Yrotation
    JOINT SpineShoulder
    {
      OFFSET 0.013966 21.686897 -0.863848
      CHANNELS 3 Zrotation Xrotation Yrotation
      JOINT Neck
      {
        OFFSET 0.081773 7.189271 -0.611280
        CHANNELS 3 Zrotation Xrotation Yrotation
        JOINT Head
        {
          OFFSET -0.530286 12.310766 -0.966965
          CHANNELS 3 Zrotation Xrotation Yrotation
          End Site
          {
            OFFSET 0 0 0
          }
        }
      }
      JOINT ShoulderLeft
      {
        OFFSET -11.826680 -2.781433 8.199043
        CHANNELS 3 Zrotation Xrotation Yrotation
        JOINT ElbowLeft
        {
          OFFSET 9.406785 -15.652506 -12.151240
          CHANNELS 3 Zrotation Xrotation Yrotation
          JOINT WristLeft
          {
            OFFSET -5.745359 -16.847844 6.592839
            CHANNELS 3 Zrotation Xrotation Yrotation
            JOINT HandLeft
            {
              OFFSET -6.402858 -23.138733 10.282031
              CHANNELS 3 Zrotation Xrotation Yrotation
              JOINT HandTipLeft
              {
                OFFSET 1.000613 -6.000278 -0.396844
                CHANNELS 3 Zrotation Xrotation Yrotation
                End Site
                {
                  OFFSET 0 0 0
                }
              }
              JOINT ThumbLeft
              {
                OFFSET -1.365494 1.458525 -1.836715
                CHANNELS 3 Zrotation Xrotation Yrotation
                End Site
                {
                  OFFSET 0 0 0
                }
              }
            }
          }
        }
      }
      JOINT ShoulderRight
      {
        OFFSET 9.790887 -5.204811 -13.254540
        CHANNELS 3 Zrotation Xrotation Yrotation
        JOINT ElbowRight
        {
          OFFSET 3.096360 -19.970206 -1.431775
          CHANNELS 3 Zrotation Xrotation Yrotation
          JOINT WristRight
          {
            OFFSET -1.856665 -18.474089 -3.266324
            CHANNELS 3 Zrotation Xrotation Yrotation
            JOINT HandRight
            {
              OFFSET -1.022856 -5.176478 -0.794191
              CHANNELS 3 Zrotation Xrotation Yrotation
              JOINT HandTipRight
              {
                OFFSET 0.607743 -5.591706 -1.450202
                CHANNELS 3 Zrotation Xrotation Yrotation
                End Site
                {
                  OFFSET 0 0 0
                }
              }
              JOINT ThumbRight
              {
                OFFSET -1.624370 -2.690350 -2.156939
                CHANNELS 3 Zrotation Xrotation Yrotation
                End Site
                {
                  OFFSET 0 0 0
                }
              }
            }
          }
        }
      }
    }
  }
  JOINT HipLeft
  {
    OFFSET -4.929147 1.186775 -0.204609
    CHANNELS 3 Zrotation Xrotation Yrotation
    JOINT KneeLeft
    {
      OFFSET 5.987875 -31.047389 11.837273
      CHANNELS 3 Zrotation Xrotation Yrotation
      JOINT AnkleLeft
      {
        OFFSET 4.351219 -28.972975 7.028199
        CHANNELS 3 Zrotation Xrotation Yrotation
        JOINT FootLeft
        {
          OFFSET -2.318660 -5.856529 -6.869714
          CHANNELS 3 Zrotation Xrotation Yrotation
          End Site
          {
            OFFSET 0 0 0
          }
        }
      }
    }
  }
  JOINT HipRight
  {
    OFFSET 4.622600 0.003033 -6.139440
    CHANNELS 3 Zrotation Xrotation Yrotation
    JOINT KneeRight
    {
      OFFSET 6.504601 -26.908897 5.074979
      CHANNELS 3 Zrotation Xrotation Yrotation
      JOINT AnkleRight
      {
        OFFSET 5.699245 -33.826874 8.545666
        CHANNELS 3 Zrotation Xrotation Yrotation
        JOINT FootRight
        {
          OFFSET -4.603919 -6.670823 3.168263
          CHANNELS 3 Zrotation Xrotation Yrotation
          End Site
          {
            OFFSET 0 0 0
          }
        }
      }
    }
  }
}
MOTION
Frames: 8
Frame Time: 0.033333
15.266765 69.547397 340.838894 0.000000 0.000000 31.854113 -0.000000 0.000000 -31.854113 -0.000000 0.000000 0.000000 -0.000000 0.000000 0.000000 0.000000 0.000000 0.000000 -0.000000 0.000000 0.000000 -0.000000 0.000000 0.000000 -0.000000 0.000000 0.000000 -0.000000 0.000000 0.000000 0.000000 0.000000 0.000000 0.000000 0.000000 0.000000 -0.000000 0.000000 0.000000 -0.000000 0.000000 0.000000 -0.000000 0.000000 0.000000 -0.000000 0.000000 0.000000 0.000000 0.000000 0.000000 0.000000 0.000000 0.000000 -0.000000 0.000000 -31.854113 -0.000000 0.000000 0.000000 -0.000000 0.000000 0.000000 0.000000 0.000000 0.000000 -0.000000 0.000000 -31.854113 -0.000000 0.000000 0.000000 -0.000000 0.000000 0.000000 0.000000 0.000000 0.000000
15.241574 69.453127 340.891088 0.029640 -0.024918 31.469193 -0.012272 0.036726 -31.469183 -0.000000 0.000000 0.000000 -0.000000 0.000000 0.000000 0.000000 0.000000 0.000000 -4.316028 -4.296038 0.640325 8.582960 6.776799 -0.628831 -4.339028 0.085999 -1.670233 -4.760385 -1.562449 1.180961 0.000000 0.000000 0.000000 0.000000 0.000000 0.000000 1.056936 0.329445 -0.027693 -2.865703 -0.988918 0.386626 0.357307 -7.200076 1.304211 -7.169212 7.084036 1.437726 0.000000 0.000000 0.000000 0.000000 0.000000 0.000000 -0.012272 0.036726 -31.469183 0.112794 -0.975547 -0.117931 1.841337 1.726825 -2.515416 0.000000 0.000000 0.000000 -0.012272 0.036726 -31.469183 -0.000000 0.000000 0.000000 -3.191110 5.489998 -5.169654 0.000000 0.000000 0.000000
15.271303 69.383173 340.922043 0.102644 -0.061136 31.164893 -0.056193 0.105432 -31.164786 -0.000000 0.000000 0.000000 -0.000000 0.000000 0.000000 0.000000 0.000000 0.000000 -8.039582 -8.036674 0.938839 14.727310 12.191837 -2.336528 -6.972532 0.859235 -3.026992 -9.047446 -3.188495 2.272603 0.000000 0.000000 0.000000 0.000000 0.000000 0.000000 2.125720 0.630665 -0.066121 -6.490712 -1.324721 0.807405 0.296694 -11.539900 1.795288 -11.295946 11.513920 3.721714 0.000000 0.000000 0.000000 0.000000 0.000000 0.000000 1.036797 0.467737 -30.715529 -0.625044 -2.615900 -0.682908 3.790062 2.944579 -5.031767 0.000000 0.000000 0.000000 -0.056193 0.105432 -31.164786 -1.311040 -0.160522 -0.360670 -4.374606 10.401935 -8.955148 0.000000 0.000000 0.000000
15.355951 69.337535 340.931758 0.218918 -0.108668 30.949325 -0.131864 0.205780 -30.948881 -0.000000 0.000000 0.000000 -0.000000 0.000000 0.000000 0.000000 0.000000 0.000000 -10.835229 -10.831422 1.009283 18.191469 16.182218 -4.266721 -8.339646 2.124005 -4.075117 -13.076986 -4.804605 3.384313 0.000000 0.000000 0.000000 0.000000 0.000000 0.000000 3.208436 0.904057 -0.114672 -11.050566 -1.107481 1.325135 -0.149625 -13.921565 1.619133 -13.451264 14.106285 6.020432 0.000000 0.000000 0.000000 0.000000 0.000000 0.000000 1.273938 0.770538 -30.377649 -0.850650 -3.539135 -0.915117 5.774354 3.658922 -7.446943 0.000000 0.000000 0.000000 -0.151812 -0.753394 -31.060237 -2.246545 0.671406 -0.336439 -5.667864 13.867207 -11.747306 0.000000 0.000000 0.000000
15.495518 69.316212 340.920232 0.378550 -0.167572 30.829997 -0.239183 0.337894 -30.828738 -0.000000 0.000000 0.000000 -0.000000 0.000000 0.000000 0.000000 0.000000 0.000000 -12.440156 -12.412651 0.997982 18.542312 18.812390 -5.815803 -8.782686 3.747823 -4.823672 -16.988054 -6.354030 4.643468 0.000000 0.000000 0.000000 0.000000 0.000000 0.000000 4.307171 1.149910 -0.172764 -16.866295 -0.331436 2.041879 -0.898562 -14.708875 0.867093 -14.090379 15.291232 8.139770 0.000000 0.000000 0.000000 0.000000 0.000000 0.000000 1.325383 1.112776 -30.202699 -1.005019 -4.239629 -1.078314 7.724098 3.886290 -9.662757 0.000000 0.000000 0.000000 -0.404476 -0.653305 -30.986023 -2.442631 0.834984 -0.349442 -6.478020 15.640698 -13.243732 0.000000 0.000000 0.000000
15.690006 69.319205 340.887467 0.581816 -0.237955 30.813578 -0.377810 0.502388 -30.810714 -0.000000 0.000000 0.000000 -0.000000 0.000000 0.000000 0.000000 0.000000 0.000000 -12.699255 -12.643327 1.011835 15.333655 20.126905 -6.709335 -8.583332 5.630198 -5.257690 -20.855162 -7.801885 6.225887 0.000000 0.000000 0.000000 0.000000 0.000000 0.000000 5.424014 1.368408 -0.239844 -24.447759 1.074338 3.138549 -1.731523 -13.879381 -0.351824 -13.455021 15.152669 10.112511 0.000000 0.000000 0.000000 0.000000 0.000000 0.000000 1.193067 1.492655 -30.195373 -1.083549 -4.733604 -1.174000 9.578876 3.654926 -11.593428 0.000000 0.000000 0.000000 -0.758917 -0.393522 -31.018343 -2.351123 0.984860 -0.309857 -6.877492 15.550355 -13.408642 0.000000 0.000000 0.000000
16.168800 69.332298 340.761423 1.138777 -0.280447 30.594247 -0.837596 0.820934 -30.585459 -0.000000 0.000000 0.000000 -0.000000 0.000000 0.000000 0.000000 0.000000 0.000000 -10.892009 -10.741289 1.126607 7.016289 19.213669 -6.907345 -9.872599 7.894085 -6.232503 -24.656317 -11.388237 8.411145 0.000000 0.000000 0.000000 0.000000 0.000000 0.000000 7.124570 1.507822 -0.367636 -37.358090 3.656141 5.501463 -0.335260 -12.811888 -2.253110 -14.488549 14.120140 13.567231 0.000000 0.000000 0.000000 0.000000 0.000000 0.000000 0.305602 2.076450 -30.160079 -0.903250 -4.954686 -1.108195 9.113237 7.482082 -11.787925 0.000000 0.000000 0.000000 -1.842141 0.286379 -30.922224 -1.796069 1.178993 -0.180706 -9.131401 10.486906 -10.981098 0.000000 0.000000 0.000000
16.687266 69.155332 340.617882 1.741541 -0.267157 29.589661 -1.382711 1.092088 -29.572422 -0.000000 0.000000 0.000000 0.765153 1.557347 0.116879 0.000000 0.000000 0.000000 -8.126370 -7.926189 1.089256 -5.039394 16.453887 -7.437557 -10.256930 11.980854 -6.363547 -26.094050 -12.822579 12.803363 0.000000 0.000000 0.000000 0.000000 0.000000 0.000000 6.090530 3.983353 -0.030880 -57.148389 8.157802 9.488461 -0.221993 -3.975099 -3.588960 -3.895775 4.053511 12.649877 0.000000 0.000000 0.000000 0.000000 0.000000 0.000000 -1.684338 2.249229 -29.716556 0.639171 -3.519421 -0.295383 9.403338 3.755872 -11.524622 0.000000 0.000000 0.000000 -3.086696 1.037939 -30.030565 -0.848373 1.488539 0.047934 -8.796337 6.935920 -9.058777 0.000000 0.000000 0.000000
